<svg xmlns="http://www.w3.org/2000/svg" viewBox="0 0 15.97 15.93"><defs><style>.cls-1{font-size:1.35px;font-family:BaarSophia, Baar Sophia;letter-spacing:0.1em;}.cls-1,.cls-4{fill:#1d1d1b;}.cls-2{letter-spacing:0.12em;}.cls-3{letter-spacing:0em;}.cls-5,.cls-6{fill:none;}.cls-5{stroke:#1d1d1b;stroke-width:0.5px;}</style></defs><g id="Calque_2" data-name="Calque 2"><g id="Calque_1-2" data-name="Calque 1"><text class="cls-1" transform="translate(6.84 11.99)">A<tspan class="cls-2" x="0.88" y="0">N</tspan><tspan class="cls-3" x="1.91" y="0">S</tspan></text><path class="cls-4" d="M2.62,6.77l.08-2C2.34,4.85,2,5,1.61,5L.2,5.32l-.2,0L.2,6,1.42,5.6l0,3c0,.61,0,1.14,0,1.6h1.3c0-.53,0-1,0-1.6ZM9.26,9.4A5.64,5.64,0,0,0,9.43,8a5,5,0,0,0-.16-1.34,3.05,3.05,0,0,0-.48-1A2.12,2.12,0,0,0,8,5a2.33,2.33,0,0,0-1-.24,2.13,2.13,0,0,0-1,.22,2.43,2.43,0,0,0-.79.65,3.17,3.17,0,0,0-.51,1.06,4.92,4.92,0,0,0-.19,1.39,4.91,4.91,0,0,0,.18,1.38,2.94,2.94,0,0,0,.3.75H6.14a4.92,4.92,0,0,1-.37-2.14,5.07,5.07,0,0,1,.31-2A1,1,0,0,1,7,5.32a.89.89,0,0,1,.47.14,1.12,1.12,0,0,1,.38.44A4.72,4.72,0,0,1,8.24,8a5.65,5.65,0,0,1-.29,2l-.06.14h1a3.82,3.82,0,0,0,.32-.8m6.5,0A5.2,5.2,0,0,0,15.94,8a5,5,0,0,0-.17-1.34,3.05,3.05,0,0,0-.48-1A2.12,2.12,0,0,0,14.53,5a2.26,2.26,0,0,0-1-.24,2.13,2.13,0,0,0-1,.22,2.3,2.3,0,0,0-.78.65,3.18,3.18,0,0,0-.52,1.06,4.93,4.93,0,0,0-.18,1.39,5.32,5.32,0,0,0,.17,1.38,3.91,3.91,0,0,0,.3.75h1.09a4.78,4.78,0,0,1-.37-2.14,5.29,5.29,0,0,1,.3-2,1,1,0,0,1,.94-.74.92.92,0,0,1,.48.14,1.1,1.1,0,0,1,.37.44A4.7,4.7,0,0,1,14.75,8a5.41,5.41,0,0,1-.3,2l-.06.14h1a3.82,3.82,0,0,0,.32-.8"/><line class="cls-5" x1="6.23" y1="11.55" x2="0.03" y2="11.55"/><line class="cls-5" x1="15.97" y1="11.55" x2="9.73" y2="11.55"/><rect class="cls-6" width="15.96" height="15.93"/></g></g></svg>